PathFileType	3	(X/Y/Z)	D:\minhoCalibration\240510\subject2_KPNP\preferred\preferred13.trc
DataRate	CameraRate	NumFrames	NumMarkers	Units	OrigDataRate	OrigDataStartFrame	OrigNumFrames
200.0	200.0	15	10	mm	200.0	587	213	
Frame#	Time	Left_Ankle_Outer1			Left_Ankle_Inner1			Left_Knee_Outer1			Left_Knee_Inner1			Left_Wrist1			Right_Wrist1			Right_Knee_Inner1			Right_Knee_Outer1			Right_Ankle_Inner1			Right_Ankle_Outer1			
		X1	Y1	Z1	X2	Y2	Z2	X3	Y3	Z3	X4	Y4	Z4	X5	Y5	Z5	X6	Y6	Z6	X7	Y7	Z7	X8	Y8	Z8	X9	Y9	Z9	X10	Y10	Z10	
587	2.925	-676.51355	97.782166	-736.63202	-677.81641	102.32491	-681.29926	-505.16873	512.56848	-776.74335	-537.37646	497.89035	-685.89795	-506.76889	985.71143	-839.35229	-735.55127	1055.0729	-593.31335	-664.97296	561.55627	-424.06915	-744.3335	606.92798	-399.30801	-794.20587	197.34543	-565.18372	-889.03741	221.82417	-545.26862
588	2.93	-676.31458	97.854759	-737.48126	-678.65961	101.72803	-682.57666	-504.05841	512.94885	-776.42151	-537.29144	497.93237	-685.81989	-505.82074	986.83105	-838.15417	-739.11438	1052.5392	-595.09363	-671.97845	556.93494	-431.38202	-751.6568	601.6059	-408.49503	-793.89917	196.83339	-577.08624	-894.01678	217.56601	-561.91895
589	2.935	-676.10626	97.772865	-738.20349	-677.68127	103.2912	-680.69965	-503.703	512.61066	-775.80511	-537.34735	497.98306	-685.72943	-504.78394	987.85547	-836.68695	-742.40283	1050.0273	-597.10504	-679.00378	552.51764	-438.62244	-759.19214	596.9729	-416.88373	-800.38104	193.35513	-590.43481	-899.14929	214.73088	-578.18878
590	2.94	-675.86481	97.717224	-738.8443	-678.03461	102.13058	-683.82928	-503.10242	512.59296	-775.22247	-537.24084	497.97363	-685.48688	-504.11655	988.78827	-835.28479	-745.96576	1047.5542	-599.22821	-685.51221	548.45587	-446.30588	-766.45648	592.14899	-425.86377	-807.30316	188.37256	-604.66986	-904.16498	212.16243	-593.26654
591	2.945	-675.68536	97.694237	-739.43713	-677.8877	101.89634	-684.94617	-502.35922	512.55695	-774.70892	-537.23218	497.98169	-685.26904	-504.27002	989.65875	-833.79218	-749.58813	1045.0396	-601.41388	-692.87238	544.01752	-453.56482	-773.85016	587.63617	-434.78333	-812.52228	185.13655	-617.45825	-908.84021	209.63562	-608.39691
592	2.95	-675.60034	97.964798	-740.22949	-677.8822	101.77792	-685.539	-501.6759	512.50635	-774.20038	-537.34503	497.94751	-685.02698	-504.10168	990.67706	-832.27405	-753.21771	1042.5638	-603.74384	-699.44873	540.19922	-461.2554	-780.19849	582.07855	-446.47256	-817.0705	181.91736	-630.49115	-913.43585	207.39752	-623.11633
593	2.955	-675.49017	97.92675	-740.65656	-678.19391	100.87102	-686.88708	-501.01923	512.41705	-773.61426	-537.4989	497.89551	-684.77594	-503.64017	991.8103	-830.8808	-756.81622	1040.0393	-606.21204	-706.32135	536.50793	-468.5162	-788.41205	578.99542	-452.69711	-821.3609	179.48004	-643.02527	-917.88519	205.2865	-637.69397
594	2.96	-675.31036	97.79744	-741.09174	-678.26117	101.85705	-685.64203	-500.37704	512.23364	-773.09064	-537.72345	497.87598	-684.45917	-503.34192	992.69177	-829.35004	-760.67706	1037.6151	-608.76617	-713.20459	532.38318	-476.36594	-796.09027	575.32678	-460.82327	-825.81946	177.05472	-655.59216	-922.76978	203.52374	-652.85077
595	2.965	-675.23962	97.696419	-741.5202	-678.3385	100.75699	-687.51337	-499.7962	511.99203	-772.51031	-537.92871	497.86499	-684.19513	-503.10342	993.55493	-827.93201	-764.3725	1035.1666	-611.45288	-719.35468	528.45667	-483.33978	-802.66418	571.07373	-471.1705	-830.22461	174.40964	-667.65723	-927.00232	201.69165	-667.19269
596	2.97	-675.1084	97.804703	-742.27081	-678.35724	100.81013	-687.7962	-499.35541	511.7916	-771.88574	-538.34253	497.74063	-683.9707	-503.04233	994.30072	-826.43561	-768.14636	1032.7572	-614.24194	-726.46472	525.19598	-491.35962	-809.67584	567.38562	-480.67596	-834.49292	172.1123	-680.5332	-930.97211	200.00294	-681.42493
597	2.975	-675.01117	97.731735	-742.7691	-678.60889	102.43681	-685.36285	-498.28046	512.08856	-771.58972	-538.5835	497.76605	-683.68896	-503.10385	994.98462	-824.97913	-771.95428	1030.4222	-617.0907	-732.80701	521.73761	-498.13919	-816.54608	563.9729	-490.21225	-838.76227	169.78214	-692.30957	-934.98816	198.3495	-695.23096
598	2.98	-674.95874	97.53672	-743.22632	-678.58459	100.37627	-688.72809	-498.55957	511.41296	-770.45868	-538.87482	497.77884	-683.39148	-503.26776	995.57349	-823.49011	-775.75183	1028.0491	-620.05463	-739.32819	518.53406	-506.21201	-823.25897	560.68927	-499.90363	-842.33716	167.62723	-704.42676	-938.77795	196.80556	-708.78851
599	2.985	-674.85834	97.094048	-743.32556	-678.36462	101.28746	-687.87286	-498.01489	511.29944	-769.74261	-539.25586	497.72403	-683.00879	-503.57632	996.04877	-822.08276	-779.46075	1025.6482	-623.09442	-746.04553	515.59509	-513.73407	-829.96594	557.80054	-509.45883	-845.862	165.48161	-716.23334	-942.2995	195.1958	-722.23706
600	2.99	-674.80646	96.828568	-743.72192	-678.53314	100.81991	-688.59296	-497.7002	511.10458	-768.87909	-539.59723	497.65332	-682.55005	-503.85672	996.44159	-820.63593	-783.24066	1023.265	-626.14545	-752.57758	512.82159	-521.86566	-836.24243	554.75427	-519.591	-849.87701	163.59175	-727.41516	-945.74261	193.65926	-735.55103
601	2.995	-674.80646	96.46254	-744.15039	-679.20764	100.42982	-688.65942	-497.36264	510.9278	-768.0047	-539.92078	497.47635	-682.03259	-504.37491	996.77148	-819.19025	-786.98846	1020.9596	-629.26776	-758.86481	510.15448	-529.89734	-843.02277	552.41833	-528.76416	-853.59375	161.15143	-738.24402	-949.16241	192.00056	-748.5127
